<?xml version="1.0" encoding="UTF-8"?>
<!DOCTYPE svg PUBLIC "-//W3C//DTD SVG 1.1//EN" "http://www.w3.org/Graphics/SVG/1.1/DTD/svg11.dtd">
<!-- Creator: CorelDRAW -->
<svg xmlns="http://www.w3.org/2000/svg" xml:space="preserve" width="32px" height="32px" version="1.1" style="shape-rendering:geometricPrecision; text-rendering:geometricPrecision; image-rendering:optimizeQuality; fill-rule:evenodd; clip-rule:evenodd"
viewBox="0 0 3.96 3.96"
 xmlns:xlink="http://www.w3.org/1999/xlink"
 xmlns:xodm="http://www.corel.com/coreldraw/odm/2003">
 <defs>
  <style type="text/css">
   <![CDATA[
    .fil2 {fill:#FEFEFE}
    .fil0 {fill:blue}
    .fil1 {fill:#FEFEFE;fill-rule:nonzero}
   ]]>
  </style>
 </defs>
 <g id="Camada_x0020_1">
  <metadata id="CorelCorpID_0Corel-Layer"/>
  <g id="_2604119241952">
   <rect class="fil0" width="3.96" height="3.96"/>
   <g>
    <path class="fil1" d="M2.22 1.59l0.04 0 -0.05 0.28c-0.11,0.04 -0.2,0.07 -0.3,0.09 -0.09,0.01 -0.18,0.02 -0.27,0.02 -0.21,0 -0.39,-0.05 -0.52,-0.14 -0.06,-0.11 -0.1,-0.23 -0.12,-0.38 0.03,0.07 0.07,0.13 0.11,0.19 0.12,0.14 0.29,0.21 0.52,0.21 0.12,0 0.24,-0.03 0.35,-0.08 0.1,-0.05 0.18,-0.11 0.24,-0.19zm-1.34 -0.05c-0.06,-0.13 -0.09,-0.28 -0.09,-0.46 0,-0.29 0.08,-0.51 0.24,-0.66 0.16,-0.16 0.37,-0.23 0.64,-0.23 0.19,0 0.38,0.03 0.57,0.1 0,0.14 -0.01,0.22 -0.01,0.24 0,0.03 0,0.05 0,0.07l0 0.04c0,0.06 0,0.11 -0.01,0.16l-0.02 0c-0.07,-0.33 -0.26,-0.49 -0.57,-0.49 -0.21,0 -0.38,0.06 -0.5,0.2 -0.08,0.08 -0.13,0.19 -0.16,0.32 -0.03,0.04 -0.05,0.09 -0.07,0.15 -0.04,0.09 -0.06,0.19 -0.06,0.3 0,0.09 0.01,0.18 0.04,0.26z"/>
    <g>
     <g>
      <ellipse class="fil2" transform="matrix(1.86563E-15 -0.0512933 0.0704421 1.35848E-15 2.03752 2.49877)" rx="3.48" ry="1.49"/>
      <ellipse class="fil2" transform="matrix(1.86563E-15 -0.0512933 0.0704421 1.35848E-15 2.03752 3.06246)" rx="3.48" ry="1.49"/>
     </g>
     <path class="fil2" d="M2.37 1.79c0.44,0 0.79,0.44 0.79,0.99 0,0.55 -0.35,0.99 -0.79,0.99 -0.31,0 -0.32,-0.06 -0.25,-0.31 0.01,-0.05 0.13,0.16 0.25,0.16 0.38,0 0.68,-0.37 0.68,-0.84 0,-0.46 -0.3,-0.84 -0.68,-0.84 -0.07,0 -0.16,0.14 -0.22,0.17 -0.04,-0.23 -0.01,-0.32 0.22,-0.32z"/>
    </g>
   </g>
  </g>
 </g>
</svg>
